<svg width="64" height="64" viewBox="0 0 64 64" fill="none" xmlns="http://www.w3.org/2000/svg">
<path d="M22.1494 22.3052C22.1494 19.7221 24.2435 17.6281 26.8265 17.6281C28.1232 17.6281 29.2829 18.1541 30.1353 18.9964C30.9789 19.8489 31.5037 21.0085 31.5037 22.3052V26.9823H26.8265C24.2435 26.981 22.1494 24.8882 22.1494 22.3052Z" fill="url(#paint0_linear_45_15)"/>
<path d="M23.5187 35.8259C22.6752 34.9824 22.1504 33.8048 22.1504 32.5171C22.1504 31.2295 22.6765 30.0519 23.5187 29.2083C24.3712 28.3648 25.5309 27.84 26.8275 27.84H31.5046V32.5171C31.5046 35.1002 29.4106 37.1943 26.8275 37.1943C25.5309 37.1943 24.3699 36.6682 23.5187 35.8259Z" fill="url(#paint1_linear_45_15)"/>
<path d="M32.3882 32.7862V27.9273H36.8835C39.5664 27.9273 41.7424 30.102 41.7424 32.7849C41.7424 35.2681 39.7303 37.2802 37.2381 37.2802H36.8848C34.4003 37.2815 32.3882 35.2694 32.3882 32.7862Z" fill="url(#paint2_linear_45_15)"/>
<path d="M37.0326 26.9786H32.3555V22.3015C32.3555 19.7184 34.4495 17.6244 37.0326 17.6244C38.3292 17.6244 39.4889 18.1504 40.3414 18.9927C41.1849 19.8452 41.7097 21.0048 41.7097 22.3015C41.7097 23.5981 41.1836 24.7578 40.3414 25.6103C39.4889 26.4538 38.3279 26.9786 37.0326 26.9786Z" fill="url(#paint3_linear_45_15)"/>
<path d="M53.7812 5.8138C53.7812 4.60292 54.2728 3.52004 55.06 2.72388C55.8472 1.93668 56.948 1.44516 58.1499 1.44516C59.3518 1.44516 60.4526 1.93668 61.2398 2.72388C62.027 3.52004 62.5185 4.60292 62.5185 5.8138C62.5185 7.02468 62.027 8.10884 61.2398 8.90372C60.4526 9.69092 59.3518 10.1824 58.1499 10.1824C55.7371 10.1824 53.7812 8.2266 53.7812 5.8138Z" fill="url(#paint4_linear_45_15)"/>
<path d="M62.5187 18.8378V31.9437C62.5187 40.393 59.0986 48.0384 53.5613 53.5757C48.024 59.104 40.3709 62.5331 31.9293 62.5331C15.0384 62.5331 1.33984 48.8346 1.33984 31.9437V1.35425C6.16544 1.35425 10.0771 5.26593 10.0771 10.0915V31.9437C10.0771 37.9712 12.5245 43.4407 16.4771 47.3946C20.4298 51.3485 25.8915 53.7946 31.928 53.7946C43.9933 53.7946 53.7802 44.0077 53.7802 31.9424V27.5738C53.7814 22.7494 57.6931 18.8378 62.5187 18.8378Z" fill="url(#paint5_linear_45_15)"/>
<defs>
<linearGradient id="paint0_linear_45_15" x1="31.4895" y1="21.0304" x2="21.5034" y2="21.632" gradientUnits="userSpaceOnUse">
<stop stop-color="#FF715B"/>
<stop offset="1" stop-color="#5132C0"/>
</linearGradient>
<linearGradient id="paint1_linear_45_15" x1="31.4905" y1="31.2424" x2="21.5044" y2="31.844" gradientUnits="userSpaceOnUse">
<stop stop-color="#FF715B"/>
<stop offset="1" stop-color="#5132C0"/>
</linearGradient>
<linearGradient id="paint2_linear_45_15" x1="41.7283" y1="31.3292" x2="31.7422" y2="31.9308" gradientUnits="userSpaceOnUse">
<stop stop-color="#FF715B"/>
<stop offset="1" stop-color="#5132C0"/>
</linearGradient>
<linearGradient id="paint3_linear_45_15" x1="41.6956" y1="21.0267" x2="31.7095" y2="21.6283" gradientUnits="userSpaceOnUse">
<stop stop-color="#FF715B"/>
<stop offset="1" stop-color="#5132C0"/>
</linearGradient>
<linearGradient id="paint4_linear_45_15" x1="62.5053" y1="4.62313" x2="53.1778" y2="5.18503" gradientUnits="userSpaceOnUse">
<stop stop-color="#FF715B"/>
<stop offset="1" stop-color="#5132C0"/>
</linearGradient>
<linearGradient id="paint5_linear_45_15" x1="62.4262" y1="23.6066" x2="-2.88525" y2="27.541" gradientUnits="userSpaceOnUse">
<stop stop-color="#FF715B"/>
<stop offset="1" stop-color="#5132C0"/>
</linearGradient>
</defs>
</svg>
